<svg id="Capa_1" enable-background="new 0 0 511.992 511.992" height="512" viewBox="0 0 511.992 511.992" width="512" xmlns="http://www.w3.org/2000/svg"><g><g><path d="m221.142 27.637-184.641 319.809c-15.491 26.83 3.873 60.368 34.854 60.368h369.283c30.981 0 50.344-33.538 34.854-60.368l-184.643-319.809c-15.49-26.83-54.216-26.83-69.707 0z" fill="#e27d47"/><circle cx="255.996" cy="259.865" fill="#8bc852" r="169.263"/><circle cx="255.996" cy="259.865" fill="#6ea533" r="132.189"/><g><path d="m362.744 259.863c-18.71 40.218-59.469 68.104-106.743 68.104-47.285 0-88.043-27.886-106.753-68.104 10.499-22.567 27.938-41.246 49.573-53.303 16.92-9.429 36.414-14.801 57.18-14.801 19.961 0 38.745 4.969 55.209 13.731v.011c22.547 12.004 40.727 31.117 51.534 54.362z" fill="#f6f1f1"/><path d="m318.712 235.452c0 35.016-28.394 63.41-63.42 63.41s-63.421-28.394-63.421-63.41c0-10.404 2.511-20.225 6.95-28.892 16.92-9.429 36.414-14.801 57.18-14.801 19.961 0 38.745 4.969 55.209 13.731v.011c4.789 8.921 7.502 19.113 7.502 29.951z" fill="#f6e266"/><circle cx="255.292" cy="235.448" fill="#454045" r="31.241"/></g></g><g><path d="m481.987 343.694-49.248-85.273c-.517-64.15-35.375-120.259-87.059-150.818l-40.841-70.732c-2.072-3.587-6.658-4.817-10.245-2.745-3.587 2.071-4.816 6.658-2.745 10.245l29.627 51.311c-20.261-8.11-42.358-12.58-65.481-12.58s-45.22 4.47-65.481 12.58l37.129-64.302c4.852-8.408 12.721-14.018 22.157-15.795 9.513-1.791 19.217.578 26.617 6.502 3.233 2.588 7.953 2.066 10.542-1.168 2.588-3.233 2.066-7.953-1.168-10.542-10.819-8.661-24.949-12.135-38.767-9.533-13.803 2.6-25.299 10.782-32.372 23.037l-48.341 83.721c-51.685 30.559-86.542 86.668-87.059 150.818l-49.249 85.275c-8.628 14.947-8.627 32.794.003 47.742 8.631 14.948 24.09 23.873 41.351 23.873h100.543c25.023 13.592 53.674 21.318 84.096 21.318s59.073-7.726 84.096-21.318h100.542c17.262 0 32.72-8.924 41.351-23.873 8.63-14.947 8.631-32.794.002-47.743zm-410.629 56.616c-11.839 0-22.442-6.121-28.361-16.373-5.919-10.251-5.92-22.491-.003-32.741l38.074-65.925c6.755 46.724 31.849 87.586 67.731 115.04h-77.441zm22.875-140.444c0-89.197 72.566-161.763 161.763-161.763s161.763 72.566 161.763 161.763c0 89.196-72.566 161.763-161.763 161.763s-161.763-72.567-161.763-161.763zm374.762 124.071c-5.92 10.253-16.522 16.373-28.361 16.373h-77.439c35.881-27.453 60.975-68.316 67.73-115.039l38.073 65.923c5.917 10.251 5.916 22.492-.003 32.743z"/><path d="m255.996 120.178c-77.022 0-139.684 62.662-139.684 139.684 0 31.105 10.002 60.543 28.926 85.13 2.526 3.282 7.235 3.896 10.517 1.369 3.283-2.526 3.895-7.235 1.369-10.517-16.887-21.942-25.813-48.216-25.813-75.982 0-68.752 55.933-124.685 124.685-124.685s124.685 55.933 124.685 124.685c0 68.757-55.933 124.695-124.685 124.695-28.843 0-56.966-10.078-79.189-28.378-3.199-2.634-7.924-2.175-10.557 1.022-2.633 3.198-2.176 7.924 1.022 10.557 24.902 20.506 56.412 31.799 88.724 31.799 77.022 0 139.684-62.666 139.684-139.694 0-77.023-62.662-139.685-139.684-139.685z"/><path d="m255.996 335.471c48.507 0 93.077-28.435 113.547-72.442.933-2.005.933-4.321 0-6.326-20.47-44.007-65.04-72.442-113.547-72.442s-93.077 28.435-113.547 72.442c-.933 2.005-.933 4.321 0 6.326 20.471 44.007 65.041 72.442 113.547 72.442zm55.216-100.019c0 30.829-25.086 55.91-55.921 55.91s-55.921-25.081-55.921-55.91c0-8.164 1.727-15.994 5.101-23.32 10.436-5.536 21.778-9.41 33.608-11.378-12.747 6.35-21.529 19.513-21.529 34.694 0 21.362 17.379 38.741 38.741 38.741s38.741-17.379 38.741-38.741c0-15.452-9.096-28.814-22.212-35.029 11.889 1.741 23.307 5.423 33.849 10.765 3.62 7.516 5.543 15.849 5.543 24.268zm-32.179-.004c0 13.091-10.651 23.741-23.741 23.741s-23.741-10.651-23.741-23.741c0-13.091 10.651-23.741 23.741-23.741s23.741 10.651 23.741 23.741zm-93.908-10.272c-.498 3.399-.754 6.836-.754 10.277 0 39.1 31.815 70.91 70.92 70.91s70.921-31.81 70.921-70.91c0-3.898-.33-7.782-.963-11.61 11.984 9.673 22.016 21.87 29.161 36.024-18.644 36.933-56.89 60.605-98.413 60.605s-79.768-23.672-98.413-60.605c6.82-13.513 16.273-25.239 27.541-34.691z"/><path d="m406.429 113.355c1.919 0 3.839-.732 5.303-2.197l25.355-25.355c2.929-2.929 2.929-7.677 0-10.606s-7.677-2.929-10.606 0l-25.355 25.355c-2.929 2.929-2.929 7.677 0 10.606 1.465 1.465 3.384 2.197 5.303 2.197z"/><path d="m369.861 84.459c1.206.721 2.532 1.063 3.841 1.063 2.552 0 5.04-1.303 6.445-3.653l11.34-18.971c2.125-3.556.966-8.16-2.589-10.285-3.556-2.125-8.161-.965-10.285 2.589l-11.34 18.971c-2.127 3.556-.967 8.161 2.588 10.286z"/><path d="m427.824 142.42c1.404 2.351 3.893 3.655 6.446 3.655 1.308 0 2.633-.342 3.838-1.062l18.976-11.333c3.556-2.123 4.717-6.728 2.593-10.284s-6.727-4.718-10.284-2.593l-18.976 11.333c-3.556 2.123-4.717 6.728-2.593 10.284z"/><path d="m100.259 103.981c1.464 1.465 3.384 2.197 5.303 2.197s3.839-.732 5.303-2.197c2.929-2.929 2.929-7.677 0-10.606l-25.354-25.355c-2.928-2.93-7.677-2.929-10.606 0s-2.929 7.677 0 10.606z"/><path d="m131.845 74.692c1.404 2.35 3.892 3.653 6.445 3.653 1.309 0 2.635-.343 3.841-1.063 3.555-2.125 4.715-6.73 2.589-10.285l-11.34-18.972c-2.124-3.555-6.73-4.715-10.285-2.589-3.555 2.125-4.715 6.73-2.589 10.285z"/><path d="m54.907 126.502 18.976 11.334c1.205.72 2.53 1.062 3.838 1.062 2.553 0 5.042-1.304 6.446-3.655 2.124-3.556.963-8.16-2.593-10.284l-18.976-11.334c-3.557-2.125-8.161-.962-10.284 2.593-2.124 3.556-.963 8.16 2.593 10.284z"/><path d="m255.999 461.135c-4.142 0-7.5 3.358-7.5 7.5v35.857c0 4.142 3.358 7.5 7.5 7.5s7.5-3.358 7.5-7.5v-35.857c0-4.142-3.358-7.5-7.5-7.5z"/><path d="m306.09 463.349c-1.011-4.016-5.087-6.453-9.104-5.442-4.016 1.011-6.453 5.087-5.442 9.104l5.396 21.433c.856 3.402 3.911 5.671 7.267 5.671.606 0 1.222-.074 1.836-.229 4.016-1.011 6.453-5.087 5.442-9.104z"/><path d="m215.016 457.908c-4.018-1.014-8.094 1.423-9.106 5.438l-5.404 21.432c-1.013 4.016 1.422 8.094 5.438 9.106.616.155 1.232.229 1.839.229 3.354 0 6.409-2.267 7.267-5.668l5.404-21.432c1.013-4.015-1.422-8.092-5.438-9.105z"/></g></g></svg>